<svg id="Layer_1" data-name="Layer 1" xmlns="http://www.w3.org/2000/svg" xmlns:xlink="http://www.w3.org/1999/xlink" viewBox="0 0 951 260"><defs><style>.cls-1{fill:#fff;}.cls-2{fill:url(#linear-gradient);}</style><linearGradient id="linear-gradient" x1="32.46" y1="75.67" x2="344.97" y2="391.25" gradientUnits="userSpaceOnUse"><stop offset="0" stop-color="#edc48d"/><stop offset="1" stop-color="#805023"/></linearGradient></defs><path class="cls-1" d="M269.2,121.54H262v29.74H243.61V73.51h25.48c21.1,0,32,7.52,32,23.68,0,10.21-4.83,16.38-14.93,21l19.75,33.1H285.14ZM262,108.86h7.75c8.08,0,12.34-3.48,12.34-11.67,0-7.52-4.38-10.78-13.47-10.78H262Z"/><path class="cls-1" d="M382.22,86.64H354.84v18.63h23.9v12.91h-23.9V138h29.29v13.24h-47.7V73.51h47.7Z"/><path class="cls-1" d="M419,73.51h46.35l-1.91,13.13h-26v20.65h22.67v13.13H437.44v30.86H419Z"/><path class="cls-1" d="M543.05,86.64H515.66v18.63h23.91v12.91H515.66V138H545v13.24h-47.7V73.51H545Z"/><path class="cls-1" d="M605.44,121.54h-7.18v29.74h-18.4V73.51h25.47c21.1,0,32,7.52,32,23.68,0,10.21-4.83,16.38-14.93,21l19.75,33.1H621.38Zm-7.18-12.68H606c8.08,0,12.34-3.48,12.34-11.67,0-7.52-4.38-10.78-13.47-10.78h-6.62Z"/><path class="cls-1" d="M698.26,121.54h-7.18v29.74H672.67V73.51h25.48c21.1,0,32,7.52,32,23.68,0,10.21-4.82,16.38-14.93,21L735,151.28H714.2Zm-7.18-12.68h7.74c8.08,0,12.34-3.48,12.34-11.67,0-7.52-4.37-10.78-13.46-10.78h-6.62Z"/><path class="cls-1" d="M802.41,134.56H779.74l-3.93,16.72H756.73l23.46-77.77h22.33L826,151.28H806.45Zm-3.14-13.35-8.2-34.35-8.19,34.35Z"/><path class="cls-1" d="M873.67,136.69H904l-1.91,14.59h-46.8V73.51h18.4Z"/><path class="cls-1" d="M252.89,175.78l-.78.87a6.32,6.32,0,0,0-4.55-1.79c-2.5,0-4.16,1.37-4.16,3.42s1.15,3,4.58,4.08c3.59,1.09,5.5,2.36,5.5,5.64s-2.47,5.51-6.18,5.51a8.33,8.33,0,0,1-6-2.39l.79-.87a7.2,7.2,0,0,0,5.2,2.08c2.83,0,4.86-1.6,4.86-4.3,0-2.47-1.21-3.48-4.7-4.55-3.87-1.18-5.39-2.5-5.39-5.17s2.19-4.61,5.48-4.61A7.35,7.35,0,0,1,252.89,175.78Z"/><path class="cls-1" d="M288.76,175.19H283v18h-1.32v-18H276V174h13Z"/><path class="cls-1" d="M319,184.41h-4.16v8.79H313.5V174H318c4.55,0,6.66,1.83,6.66,5.15,0,2.92-1.63,4.41-4.33,5.05l5.31,9h-1.6Zm-.76-1.13c3.2,0,5-1.26,5-4.15,0-2.62-1.46-4-5.33-4h-3.12v8.14Z"/><path class="cls-1" d="M359.76,187.81h-8.35l-1.77,5.39h-1.35L354.78,174h1.69L363,193.2h-1.43Zm-.37-1.18-3.76-11.55-3.82,11.55Z"/><path class="cls-1" d="M396.41,175.19h-5.73v18h-1.32v-18H383.6V174h13Z"/><path class="cls-1" d="M430.5,175.14h-8v7.47h6.94v1.15h-6.94v8.29h8.37v1.15h-9.69V174h9.52Z"/><path class="cls-1" d="M467.8,175.53l-.82.87a6.33,6.33,0,0,0-4.29-1.54c-3.18,0-6.49,2.38-6.49,8.65,0,6,2.55,8.82,6.49,8.82a8.24,8.24,0,0,0,4.15-1V184.1H463L462.8,183h5.36v9a10.67,10.67,0,0,1-5.47,1.55c-4.72,0-7.9-3.35-7.9-10s3.91-9.81,7.9-9.81A7.41,7.41,0,0,1,467.8,175.53Z"/><path class="cls-1" d="M498.44,185.64v7.56h-1.32v-7.53L491,174h1.49l5.34,10.45L503,174h1.46Z"/><path class="cls-1" d="M558.28,174h9.36l-.17,1.16H559.6V183h6.8v1.13h-6.8v9.1h-1.32Z"/><path class="cls-1" d="M606.51,183.62c0,6.29-3,9.89-7.75,9.89S591,190,591,183.65s3.17-10,7.73-10S606.51,177.13,606.51,183.62Zm-14.07,0c0,5.81,2.58,8.68,6.32,8.68,3.93,0,6.34-2.87,6.34-8.71s-2.5-8.76-6.34-8.76S592.44,177.72,592.44,183.65Z"/><path class="cls-1" d="M638.24,184.41h-4.16v8.79h-1.32V174h4.53c4.55,0,6.65,1.83,6.65,5.15,0,2.92-1.63,4.41-4.32,5.05l5.31,9h-1.6Zm-.76-1.13c3.21,0,5.06-1.26,5.06-4.15,0-2.62-1.46-4-5.34-4h-3.12v8.14Z"/><path class="cls-1" d="M711,175.53l-.81.87a6.37,6.37,0,0,0-4.3-1.54c-3.18,0-6.49,2.38-6.49,8.65,0,6,2.55,8.82,6.49,8.82a8.24,8.24,0,0,0,4.15-1V184.1h-3.87L706,183h5.36v9a10.64,10.64,0,0,1-5.47,1.55c-4.72,0-7.9-3.35-7.9-10s3.91-9.81,7.9-9.81A7.41,7.41,0,0,1,711,175.53Z"/><path class="cls-1" d="M743.05,184.41H738.9v8.79h-1.32V174h4.52c4.55,0,6.66,1.83,6.66,5.15,0,2.92-1.63,4.41-4.33,5.05l5.31,9h-1.6Zm-.76-1.13c3.21,0,5.06-1.26,5.06-4.15,0-2.62-1.46-4-5.34-4H738.9v8.14Z"/><path class="cls-1" d="M789.09,183.62c0,6.29-3,9.89-7.76,9.89s-7.72-3.49-7.72-9.86,3.17-10,7.72-10S789.09,177.13,789.09,183.62Zm-14.08,0c0,5.81,2.59,8.68,6.32,8.68,3.94,0,6.35-2.87,6.35-8.71s-2.5-8.76-6.35-8.76S775,177.72,775,183.65Z"/><path class="cls-1" d="M829.44,193.2h-1.63l-4.41-17.75L819,193.2h-1.6L813,174h1.38l3.84,17.93L822.64,174h1.52l4.47,17.93L832.48,174h1.29Z"/><path class="cls-1" d="M869,175.19h-5.73v18h-1.32v-18h-5.76V174h13Z"/><path class="cls-1" d="M904.65,183.68H895v9.52h-1.32V174H895v8.52h9.61V174H906V193.2h-1.35Z"/><path class="cls-2" d="M182.86,62.17q-7.1-12.7-27.21-18.08l-3.52-.83q-17.77-4.09-43.45-2.13,1.69-5.85,2.8-9.91,1.8-6.46,2.45-9.72a37.58,37.58,0,0,0,.73-4.84,5.71,5.71,0,0,0-.32-2.4v0a6.1,6.1,0,0,0-.56-1.38c-.25-.38-.41-.66-.51-.82-6.66-4.06-9.9,1.45-9.9,1.45.09.16,0,.5-.16,1s-.44,1.16-.73,1.88a13.86,13.86,0,0,0-.62,1.7A23.55,23.55,0,0,0,101,21l-.6,2.62c-.19.72-.41,1.73-.69,3a10.54,10.54,0,0,0-.32,3.09,14,14,0,0,1-.53,3.17c-.44,1.86-1.29,4.88-2.58,9l-.22.7a234.45,234.45,0,0,0-29.85,6.1Q46.09,54.08,33.73,61.12q-7.3,4.13-8.25,8.14a5.73,5.73,0,0,0,.06,2.83c.62,3,3.15,5,7.6,6l.51.12a16.85,16.85,0,0,0,5.16.65,4.78,4.78,0,0,0,3.26-3.49c0-.11.14-.62.36-1.59s-.45-2.12-2-3.54l-1.05-.77L41,68.61A108.74,108.74,0,0,1,55.16,63a178.69,178.69,0,0,1,18.26-5q7.49-1.79,12.64-2.72a24.75,24.75,0,0,1,5.44-.68l.87-.15c-.46,1.46-1,3-1.46,4.59Q85.48,76.46,81,91.3c-3,9.88-6.23,21-9.72,33.19l-1.54,5.91-5.82,20c0,.25-.6,2.51-1.67,6.85-.18.73-.37,1.51-.57,2.3l-.45.18v.06l0,.08-2.35.88,0,0L56,161.86c-1.53.46-3,.94-4.39,1.45a31.16,31.16,0,0,1-3.23,1q-4.77.85-5.61,4.51c-.49,2-.23,3.48.73,4.42s3.21,1.84,6.75,2.78c1.56.48,2.86.88,4,1.19a6.34,6.34,0,0,1,.65.2l.62.19,1.36.43c-.95,3.66-2,7.58-3.07,11.8-1.61,6.07-3.08,11.83-4.47,17.27-.78,2.83-1.44,5.41-2,7.77-1.19,4.53-2.14,8.15-2.89,10.76s-1.29,4.66-1.67,6a9.3,9.3,0,0,1-2,4.24,7.32,7.32,0,0,0-2,3.46,24.56,24.56,0,0,0-.37,5c.28,3.34,1.19,5.63,2.73,6.89a8.42,8.42,0,0,0,2.33.92,7,7,0,0,0,3-.1,6,6,0,0,0,3.46-2.33,33.38,33.38,0,0,0,1.29-3.43c.59-1.82,1.51-4.78,2.73-8.93s2.83-10.07,4.78-17.71,4.5-17.43,7.65-29.35c.78-3,1.52-5.88,2.23-8.61.41.1.94.26,1.59.45l3.71,1.11L79.57,185c2.29.71,5.1,1.62,8.36,2.72q24,7.48,34.19,12c6.77,3,11.53,6.24,14.28,9.56a7.8,7.8,0,0,0,3.72,2.26,6.67,6.67,0,0,0,2,0q1.53-.08,3-2.58a4.48,4.48,0,0,0,.46-1.13,4.71,4.71,0,0,1,.17-.74,5.3,5.3,0,0,0-.31-1.76c-1.14-5.3-6.75-10.26-16.87-14.82q-12.29-5.66-43.37-15.31c-.88-.31-1.7-.54-2.49-.74-2.53-.82-4.6-1.47-6.24-1.95s-3-.94-3.85-1.25c-.5-.18-.91-.33-1.25-.47.32-1.18.62-2.32.92-3.42.41-.19.88-.39,1.43-.62a326.07,326.07,0,0,0,60.55-31.54q45.57-30.91,51.16-54.34l.23-1A22.3,22.3,0,0,0,182.86,62.17ZM175,77.31c-.17.65-.4,1.36-.68,2.12-1.3,4.65-4.31,9.73-9,15.23Q153,109.07,130.51,124.45a308.72,308.72,0,0,1-48.08,26.76c-2.24,1-4.11,1.81-5.67,2.38l-.86.32,8.34-29.55.35-1.51c.09-.47.4-1.45.85-2.92s.91-3.12,1.35-5c.6-2.08,2-6.8,4.15-14.22s4.62-15.67,7.39-24.82,5.07-16.86,7-23.4l2.55-.21c2.29-.2,4.64-.34,7.08-.48s4.62-.23,6.49-.29q17.19-.26,28.92,2.44Q166.79,57.76,173,67.33a12.14,12.14,0,0,1,2.23,5.61A11.89,11.89,0,0,1,175,77.31Z"/></svg>