<?xml version="1.0" encoding="utf-8"?>
<!-- Generator: Adobe Illustrator 24.2.3, SVG Export Plug-In . SVG Version: 6.00 Build 0)  -->
<svg version="1.1" id="Layer_1" xmlns="http://www.w3.org/2000/svg" xmlns:xlink="http://www.w3.org/1999/xlink" x="0px" y="0px"
	 viewBox="0 0 512 512" style="enable-background:new 0 0 512 512;" xml:space="preserve">
<style type="text/css">
	.st0{fill:#FFFFFF;}
</style>
<path class="st0" d="M496.9,56.6h-7.2V21c0-10.5-8.5-19-19-19h-14.5c-10.5,0-19,8.5-19,19v425.2c0,0.1,0,0.1,0,0.2c0,0,0,0,0,0
	c0,0.1,0,0.1,0,0.2c0,0,0,0,0,0c0,0.1,0,0.1,0,0.2c0,0,0,0,0,0c0,0.4,0.1,0.8,0.2,1.2l11.9,50.5c1.6,6.6,7.2,11.1,14,11.1
	s12.5-4.5,14-11.1l11.9-50.5c0.1-0.4,0.2-0.8,0.2-1.2c0,0,0,0,0,0c0-0.1,0-0.1,0-0.2c0,0,0,0,0,0c0-0.1,0-0.1,0-0.2c0,0,0,0,0,0
	c0-0.1,0-0.1,0-0.2V71.6h7.2c0.1,0,0.1,0,0.1,0.1v97.2c0,4.1,3.4,7.5,7.5,7.5s7.5-3.4,7.5-7.5V71.7C512,63.4,505.2,56.6,496.9,56.6z
	 M452.3,438.6V86.2h22.4v352.5H452.3z M474.8,71.2h-22.4V57h22.4V71.2z M456.3,17h14.5c2.2,0,4,1.8,4,4v21h-22.4V21
	C452.3,18.8,454.1,17,456.3,17z M463.5,492.7l-9.2-39.1h18.5L463.5,492.7z"/>
<path class="st0" d="M272.5,363.6H137.1c-4.1,0-7.5,3.4-7.5,7.5c0,4.1,3.4,7.5,7.5,7.5h135.5c4.1,0,7.5-3.4,7.5-7.5
	C280,367,276.7,363.6,272.5,363.6z"/>
<path class="st0" d="M272.5,405.9H137.1c-4.1,0-7.5,3.4-7.5,7.5c0,4.1,3.4,7.5,7.5,7.5h135.5c4.1,0,7.5-3.4,7.5-7.5
	C280,409.3,276.7,405.9,272.5,405.9z"/>
<path class="st0" d="M204.8,448.2h-67.7c-4.1,0-7.5,3.4-7.5,7.5c0,4.1,3.4,7.5,7.5,7.5h67.7c4.1,0,7.5-3.4,7.5-7.5
	C212.3,451.6,208.9,448.2,204.8,448.2z"/>
<path class="st0" d="M97.3,167.2h255.5c4.1,0,7.5-3.4,7.5-7.5c0-4.1-3.4-7.5-7.5-7.5H97.3c-4.1,0-7.5,3.4-7.5,7.5
	C89.8,163.8,93.1,167.2,97.3,167.2z"/>
<path class="st0" d="M97.3,216.3h255.5c4.1,0,7.5-3.4,7.5-7.5c0-4.1-3.4-7.5-7.5-7.5H97.3c-4.1,0-7.5,3.4-7.5,7.5
	C89.8,212.9,93.1,216.3,97.3,216.3z"/>
<path class="st0" d="M97.3,265.4H221c4.1,0,7.5-3.4,7.5-7.5c0-4.1-3.4-7.5-7.5-7.5H97.3c-4.1,0-7.5,3.4-7.5,7.5
	C89.8,262,93.1,265.4,97.3,265.4z"/>
<path class="st0" d="M416.1,111.4C416.1,111.4,416.1,111.4,416.1,111.4c-0.1-1.5-0.6-3-1.5-4.1c0,0-0.1-0.1-0.1-0.1c0,0,0,0,0,0
	c0,0-0.1-0.1-0.1-0.1c0,0,0,0,0,0c0,0-0.1-0.1-0.1-0.1c0,0,0,0,0-0.1c0,0,0,0-0.1-0.1c0,0,0,0-0.1-0.1c0,0,0,0,0,0
	c0,0-0.1-0.1-0.1-0.1c0,0,0,0,0,0c0,0-0.1-0.1-0.1-0.1L311.7,4.2c-0.2-0.3-0.5-0.5-0.8-0.7c0,0,0,0,0,0c0,0-0.1,0-0.1-0.1
	c0,0-0.1,0-0.1-0.1c0,0,0,0,0,0c0,0-0.1-0.1-0.1-0.1c0,0,0,0,0,0c-1.1-0.7-2.4-1.2-3.8-1.2c0,0,0,0-0.1,0c0,0-0.1,0-0.1,0
	c-0.1,0-0.1,0-0.2,0h-245C46.2,2,33.9,14.3,33.9,29.5v253.3c0,4.1,3.4,7.5,7.5,7.5c4.1,0,7.5-3.4,7.5-7.5V29.5
	c0-6.9,5.6-12.5,12.5-12.5h237.5v84.4c0,9.8,8,17.8,17.8,17.8h84.4v362.9c0,6.9-5.6,12.5-12.4,12.5l-47-0.2h0
	c-4.1,0-7.5,3.3-7.5,7.5c0,4.1,3.3,7.5,7.5,7.5l47,0.2c15.1,0,27.5-12.3,27.5-27.5V111.7c0-0.1,0-0.1,0-0.2
	C416.1,111.5,416.1,111.4,416.1,111.4z M313.9,101.4V27.6l76.6,76.6h-73.8C315.1,104.2,313.9,103,313.9,101.4z"/>
<path class="st0" d="M300.7,306.2H22.4C10,306.2,0,316.2,0,328.6v158.5c0,12.3,10,22.4,22.4,22.4h278.3c12.3,0,22.4-10,22.4-22.4
	V328.6C323.1,316.2,313,306.2,300.7,306.2z M308.1,487.1c0,4.1-3.3,7.4-7.4,7.4H22.4c-4.1,0-7.4-3.3-7.4-7.4V328.6
	c0-4.1,3.3-7.4,7.4-7.4h278.3c4.1,0,7.4,3.3,7.4,7.4V487.1z"/>
<path class="st0" d="M105.4,128.2h53.1c8.6,0,15.6-7,15.6-15.6V59.5c0-8.6-7-15.6-15.6-15.6h-53.1c-8.6,0-15.6,7-15.6,15.6v53.1
	C89.8,121.2,96.8,128.2,105.4,128.2z M104.8,59.5c0-0.3,0.3-0.6,0.6-0.6h53.1c0.3,0,0.6,0.3,0.6,0.6v53.1c0,0.3-0.3,0.6-0.6,0.6
	h-53.1c-0.3,0-0.6-0.3-0.6-0.6V59.5z"/>
<path class="st0" d="M91,358H49.5c-7.2,0-13.1,5.9-13.1,13.1v41.5c0,7.2,5.9,13.1,13.1,13.1H91c7.2,0,13.1-5.9,13.1-13.1v-41.5
	C104.2,363.9,98.3,358,91,358z M89.2,410.8H51.4V373h37.8V410.8z"/>
</svg>
