<?xml version="1.0" encoding="utf-8"?>
<!-- Generator: Adobe Illustrator 24.2.3, SVG Export Plug-In . SVG Version: 6.00 Build 0)  -->
<svg version="1.1" id="Layer_1" xmlns="http://www.w3.org/2000/svg" xmlns:xlink="http://www.w3.org/1999/xlink" x="0px" y="0px"
	 viewBox="0 0 480 416" style="enable-background:new 0 0 480 416;" xml:space="preserve">
<style type="text/css">
	.st0{fill:#FFFFFF;}
</style>
<g id="outline">
	<path class="st0" d="M452,0H28C12.5,0,0,12.5,0,28v296c0,15.5,12.5,28,28,28h355.9l40.8,44.4l10.8,11.8c9,9.8,24.1,10.4,33.9,1.5
		s10.4-24.1,1.5-33.9L460.1,364l-11-12h2.9c15.5,0,28-12.5,28-28V28C480,12.5,467.5,0,452,0z M16,28c0-6.6,5.4-12,12-12h424
		c6.6,0,12,5.4,12,12v20H16V28z M88,336V96h304v193.8l-40.1-43.7c-0.1-0.1-0.2-0.2-0.3-0.3c-0.1-0.1-0.1-0.1-0.2-0.2
		c-0.2-0.2-0.4-0.4-0.7-0.5l-6.9-5.1H368c4.4,0,8-3.6,8-8s-3.6-8-8-8h-46.7c-8.9-4.2-19.4-0.4-23.6,8.5c-2.5,5.4-2.2,11.7,0.9,16.8
		l0,0l17,28l0,0.1v0c0,0,0,0,0,0c0.1,0.2,0.3,0.4,0.5,0.7c0.1,0.1,0.1,0.2,0.2,0.2c0.1,0.1,0.2,0.2,0.3,0.3l8.7,9.4H128
		c-4.4,0-8,3.6-8,8s3.6,8,8,8h211.9l29.4,32H88z M437,374.3l-5.9,5.4l-10.8-11.8l11.8-10.8l10.8,11.8L437,374.3z M409.4,356.1
		l-75.7-82.5l11.8-10.8l75.7,82.5L409.4,356.1z M312.6,238.8c0.6-0.6,1.5-0.6,2.2-0.1l18.6,13.6l-9.2,8.4L312.3,241l0,0
		C311.8,240.2,312,239.3,312.6,238.8L312.6,238.8z M458.6,397.9c-3.3,3-8.3,2.8-11.3-0.5l-5.4-5.9l11.8-10.8l5.4,5.9
		C462.1,389.8,461.9,394.9,458.6,397.9L458.6,397.9z M452,336h-17.6L408,307.2V88c0-4.4-3.6-8-8-8H80c-4.4,0-8,3.6-8,8v248H28
		c-6.6,0-12-5.4-12-12V64h448v260C464,330.6,458.6,336,452,336z"/>
	<circle class="st0" cx="40" cy="32" r="8"/>
	<circle class="st0" cx="72" cy="32" r="8"/>
	<circle class="st0" cx="104" cy="32" r="8"/>
	<path class="st0" d="M288,264V120c0-4.4-3.6-8-8-8H112c-4.4,0-8,3.6-8,8v144c0,4.4,3.6,8,8,8h168C284.4,272,288,268.4,288,264z
		 M272,256H120V128h152V256z"/>
	<path class="st0" d="M160,216L160,216c0.3,8.5,6.2,15.8,14.5,17.9l9.7,2.4c1.5,0.4,3.1,0.6,4.7,0.6c10.6,0,19.1-8.6,19.1-19.2v-0.6
		l30.3,6.7c4.3,1,8.6-1.8,9.5-6.1c0.1-0.6,0.2-1.2,0.2-1.7v-64c0-4.4-3.6-8-8-8c-0.6,0-1.2,0.1-1.7,0.2L175.9,158
		c-9.9-8.8-25.1-7.9-33.9,2c-3.9,4.4-6.1,10.1-6,15.9v16C136,205.2,146.8,216,160,216z M192,217.7c0,1.7-1.4,3.2-3.2,3.2
		c-0.3,0-0.5,0-0.8-0.1l-9.7-2.4c-1.4-0.3-2.4-1.6-2.4-3.1V210l16,3.6V217.7z M232,206l-48.2-10.7c0.2-1.1,0.2-2.2,0.2-3.3v-16
		c0-1.1-0.1-2.2-0.2-3.3L232,162V206z M152,176c0-4.4,3.6-8,8-8s8,3.6,8,8v16c0,4.4-3.6,8-8,8s-8-3.6-8-8V176z"/>
	<path class="st0" d="M328,144h40c4.4,0,8-3.6,8-8s-3.6-8-8-8h-40c-4.4,0-8,3.6-8,8S323.6,144,328,144z"/>
	<path class="st0" d="M312,192h56c4.4,0,8-3.6,8-8s-3.6-8-8-8h-56c-4.4,0-8,3.6-8,8S307.6,192,312,192z"/>
</g>
</svg>
