<?xml version="1.0" encoding="utf-8"?>
<!-- Generator: Adobe Illustrator 24.2.3, SVG Export Plug-In . SVG Version: 6.00 Build 0)  -->
<svg version="1.1" id="Layer_3" xmlns="http://www.w3.org/2000/svg" xmlns:xlink="http://www.w3.org/1999/xlink" x="0px" y="0px"
	 viewBox="0 0 512 512" style="enable-background:new 0 0 512 512;" xml:space="preserve">
<style type="text/css">
	.st0{fill:#FFFFFF;}
</style>
<g>
	<path class="st0" d="M256,423.2c-13.2,0-24,10.8-24,24s10.8,24,24,24s24-10.8,24-24S269.2,423.2,256,423.2z M256,455.2
		c-4.4,0-8-3.6-8-8c0-4.4,3.6-8,8-8c4.4,0,8,3.6,8,8C264,451.6,260.4,455.2,256,455.2z"/>
	<path class="st0" d="M464,143.2h-72v-80c0-30.9-25.1-56-56-56H176c-30.9,0-56,25.1-56,56v24H16c-4.4,0-8,3.6-8,8v112
		c0,4.4,3.6,8,8,8h104v80H32c-13.2,0-24,10.8-24,24v96c0,13.2,10.8,24,24,24h88v8c0,30.9,25.1,56,56,56h160c30.9,0,56-25.1,56-56
		v-144h72c22.1,0,40-17.9,40-40v-80C504,161.2,486.1,143.2,464,143.2L464,143.2z M176,23.2h160c19.3,0,35.5,13.8,39.2,32H136.8
		C140.5,37,156.7,23.2,176,23.2L176,23.2z M153.2,103.2L96,149l-57.2-45.8L153.2,103.2L153.2,103.2z M24,111.9l67,53.6
		c1.5,1.2,3.2,1.8,5,1.8s3.5-0.6,5-1.8l67-53.6v87.4H24V111.9z M136,215.2h40c4.4,0,8-3.6,8-8v-112c0-4.4-3.6-8-8-8h-40v-16h240V144
		c-18.2,3.7-32,19.9-32,39.2v80c0,19.3,13.8,35.5,32,39.2v88.8H200v-11.1l27.6-13.8c2.7-1.4,4.4-4.1,4.4-7.2c0-3-1.7-5.8-4.4-7.2
		L200,338.3v-19.1c0-13.2-10.8-24-24-24h-40V215.2z M24,415.2v-96c0-4.4,3.6-8,8-8h144c4.4,0,8,3.6,8,8v24c0,3,1.7,5.8,4.4,7.2
		l17.7,8.8l-17.7,8.8c-2.7,1.4-4.4,4.1-4.4,7.2v40c0,4.4-3.6,8-8,8H32C27.6,423.2,24,419.7,24,415.2z M336,487.2H176
		c-22.1,0-40-17.9-40-40v-8h40c13.2,0,24-10.8,24-24v-8h176v40C376,469.3,358.1,487.2,336,487.2z M488,263.2c0,13.2-10.8,24-24,24
		h-80c-13.2,0-24-10.8-24-24v-80c0-13.2,10.8-24,24-24h80c13.2,0,24,10.8,24,24V263.2z"/>
	<path class="st0" d="M424,191.2c-22.1,0-40,17.9-40,40s17.9,40,40,40s40-17.9,40-40S446.1,191.2,424,191.2L424,191.2z M424,255.2
		c-13.2,0-24-10.8-24-24s10.8-24,24-24s24,10.8,24,24S437.2,255.2,424,255.2z"/>
	<path class="st0" d="M456,175.2h16v16h-16V175.2z"/>
	<path class="st0" d="M40,327.2h128v16H40V327.2z"/>
	<path class="st0" d="M56,359.2h96v16H56V359.2z"/>
	<path class="st0" d="M40,391.2h128v16H40V391.2z"/>
</g>
</svg>
