<?xml version="1.0" encoding="utf-8"?>
<!-- Generator: Adobe Illustrator 24.2.3, SVG Export Plug-In . SVG Version: 6.00 Build 0)  -->
<svg version="1.1" id="Layer_1" xmlns="http://www.w3.org/2000/svg" xmlns:xlink="http://www.w3.org/1999/xlink" x="0px" y="0px"
	 viewBox="0 0 512 512" style="enable-background:new 0 0 512 512;" xml:space="preserve">
<style type="text/css">
	.st0{fill:#FFFFFF;}
	.st1{fill:none;}
</style>
<g>
	<g>
		<path class="st0" d="M396,0H116C92.8,0,74,18.8,74,42v428c0,23.2,18.8,42,42,42h280c23.2,0,42-18.8,42-42V301.2l-20,20V406h-37.6
			v-47.2l-19.9,19.9V407v85H153.2V266h207.2v24l20-20v-84H418v46.4l20-20V42C438,18.8,419.2,0,396,0z M418,426v44
			c0,12.1-9.9,22-22,22h-15.6v-66H418z M133.2,492H116c-12.1,0-22-9.9-22-22v-44h39.2V492z M133.2,406H94v-60h39.2V406z M133.2,326
			H94v-60h39.2V326z M133.2,246H94v-60h39.2V246z M133.2,166H94v-60h39.2V166z M133.2,86H94V42c0-12.1,9.9-22,22-22h17.2V86z
			 M153.2,20h207.2v133.3l-53.2-53.2c-1.9-1.9-4.4-2.9-7.1-2.9s-5.2,1.1-7.1,2.9l-56.7,56.7L226,146.5c-3.9-3.9-10.2-3.9-14.1,0
			l-58.7,58.7V20z M153.2,246v-12.5l65.7-65.7l48,48c3.9,3.9,10.2,3.9,14.1,0s3.9-10.2,0-14.1L250.4,171l49.7-49.7l60.3,60.3V246
			H153.2z M380.4,20H396c12.1,0,22,9.9,22,22v44h-37.6V20z M380.4,166v-60H418v60H380.4z"/>
		<path class="st0" d="M228.5,108c18.7,0,34-15.3,34-34s-15.3-34-34-34c-18.8,0-34,15.3-34,34S209.7,108,228.5,108z M228.5,60
			c7.7,0,14,6.3,14,14s-6.3,14-14,14s-14-6.3-14-14S220.8,60,228.5,60z"/>
		<path class="st0" d="M214.9,357.1c18.7,0,34-15.3,34-34s-15.3-34-34-34c-18.8,0-34,15.3-34,34
			C180.9,341.8,196.1,357.1,214.9,357.1z M214.9,309.1c7.7,0,14,6.3,14,14s-6.3,14-14,14s-14-6.3-14-14S207.2,309.1,214.9,309.1z"/>
		<path class="st0" d="M310.1,417.6c18.7,0,34-15.3,34-34s-15.3-34-34-34c-18.8,0-34,15.3-34,34
			C276.1,402.3,291.3,417.6,310.1,417.6z M310.1,369.6c7.7,0,14,6.3,14,14s-6.3,14-14,14s-14-6.3-14-14S302.4,369.6,310.1,369.6z"/>
		<path class="st0" d="M214.9,475.7c11.1,0,20.2-9.1,20.2-20.2s-9.1-20.2-20.2-20.2c-11.2,0-20.2,9.1-20.2,20.2
			S203.7,475.7,214.9,475.7z M214.9,447.2c4.6,0,8.3,3.7,8.3,8.3s-3.7,8.3-8.3,8.3s-8.3-3.7-8.3-8.3S210.3,447.2,214.9,447.2z"/>
		<polygon class="st0" points="380.4,241.7 380.4,387.1 360.5,407 360.5,378.7 360.4,290 360.4,266 360.4,246 		"/>
		<polygon class="st0" points="438,184.1 438,329.5 418,349.5 418,204.1 		"/>
		<polyline class="st1" points="380.4,266 360.4,266 356.1,266 		"/>
	</g>
	<rect x="380.4" y="246" class="st0" width="37.6" height="20"/>
	<rect x="380.4" y="326" class="st0" width="37.6" height="20"/>
</g>
</svg>
